<svg viewBox="0 0 24 24" id="prize" xmlns="http://www.w3.org/2000/svg" width="100%" height="100%" style="
    color: #faae1d;
"><path fill="none" d="M0 0h24v24H0z"></path><path fill="currentColor" d="M12 5C9.51 5 7.5 7.01 7.5 9.5S9.51 14 12 14s4.5-2.01 4.5-4.5S14.49 5 12 5zm7.5 4.5c0 2-.78 3.81-2.05 5.16.81 1.42 2.75 4.81 2.75 4.81l-3.77-.14-2.46 2.61s-1.56-4.35-1.78-4.94h-.35c-.22.6-1.79 4.94-1.79 4.94L7.6 19.33l-3.78.14s1.92-3.36 2.75-4.8A7.46 7.46 0 0 1 4.5 9.5C4.5 5.36 7.86 2 12 2c4.14 0 7.5 3.36 7.5 7.5zm0 0"></path></svg>